<svg width="250" height="76" viewBox="0 0 250 76" fill="none" xmlns="http://www.w3.org/2000/svg">
<path fill-rule="evenodd" clip-rule="evenodd" d="M245.404 37.024C244.87 37.0256 244.341 36.9207 243.848 36.7153C243.354 36.51 242.906 36.2083 242.529 35.8276C242.151 35.4468 241.853 34.9947 241.649 34.497C241.446 33.9994 241.343 33.4661 241.345 32.928C241.345 30.68 243.142 28.808 245.428 28.808C245.962 28.8064 246.491 28.9113 246.984 29.1166C247.478 29.3219 247.926 29.6236 248.303 30.0044C248.681 30.3851 248.98 30.8373 249.183 31.3349C249.386 31.8326 249.49 32.3658 249.488 32.904C249.488 33.996 249.057 35.0433 248.292 35.8158C247.526 36.5884 246.488 37.0229 245.404 37.024ZM245.428 29.216C244.944 29.2122 244.465 29.3058 244.018 29.4913C243.571 29.6768 243.165 29.9505 242.824 30.2963C242.483 30.642 242.214 31.0529 242.033 31.5048C241.852 31.9568 241.762 32.4406 241.769 32.928C241.769 34.968 243.333 36.612 245.404 36.612C245.887 36.6152 246.366 36.5213 246.813 36.3359C247.259 36.1504 247.665 35.8771 248.006 35.5319C248.346 35.1866 248.615 34.7764 248.797 34.3252C248.978 33.874 249.069 33.3908 249.063 32.904C249.07 32.4196 248.982 31.9386 248.802 31.4894C248.622 31.0401 248.355 30.6317 248.016 30.288C247.678 29.9444 247.274 29.6725 246.83 29.4884C246.385 29.3043 245.909 29.2116 245.428 29.216ZM246.325 33.324L247.476 34.948H246.507L245.476 33.46H244.583V34.948H243.773V30.648H245.678C246.666 30.648 247.317 31.16 247.317 32.02C247.317 32.724 246.912 33.156 246.325 33.324ZM245.642 31.384H244.583V32.744H245.642C246.17 32.744 246.484 32.484 246.484 32.064C246.484 31.624 246.166 31.384 245.642 31.384ZM194.833 17.304C193.735 17.3034 192.682 17.7425 191.906 18.5245C191.129 19.3065 190.692 20.3675 190.692 21.474C190.691 22.5805 191.127 23.6418 191.903 24.4246C192.679 25.2074 193.731 25.6474 194.829 25.648C195.927 25.648 196.98 25.2082 197.757 24.4254C198.533 23.6427 198.97 22.581 198.97 21.474C198.97 20.367 198.533 19.3053 197.757 18.5225C196.98 17.7397 195.927 17.3 194.829 17.3L194.833 17.304ZM197.686 28.86H191.916C191.804 28.861 191.697 28.9066 191.618 28.9867C191.54 29.0669 191.495 29.1751 191.495 29.288V54.672C191.495 54.912 191.682 55.1 191.916 55.1H197.69C197.803 55.1 197.911 55.0549 197.99 54.9746C198.07 54.8943 198.115 54.7855 198.115 54.672V29.288C198.115 29.1745 198.07 29.0656 197.99 28.9853C197.911 28.9051 197.803 28.86 197.69 28.86H197.686ZM210.519 28.884V28.084C210.519 25.716 211.42 24.66 213.44 24.66C214.642 24.66 215.607 24.9 216.694 25.268C216.758 25.2898 216.826 25.2958 216.892 25.2855C216.959 25.2753 217.022 25.2491 217.077 25.2091C217.131 25.1691 217.175 25.1165 217.205 25.0558C217.235 24.995 217.25 24.9279 217.249 24.86V19.96C217.249 19.8684 217.22 19.7793 217.165 19.7059C217.111 19.6325 217.035 19.5785 216.948 19.552C215.392 19.0729 213.773 18.8382 212.146 18.856C206.817 18.856 203.999 21.884 203.999 27.608V28.84H201.226C201.114 28.84 201.006 28.8845 200.927 28.9639C200.847 29.0433 200.802 29.1511 200.801 29.264V34.292C200.801 34.528 200.992 34.72 201.226 34.72H203.999V54.68C203.999 54.912 204.186 55.104 204.42 55.104H210.194C210.306 55.1029 210.413 55.0574 210.492 54.9772C210.57 54.897 210.615 54.7888 210.615 54.676V34.716H216.003L224.261 54.676C223.325 56.768 222.404 57.188 221.146 57.188C220.126 57.188 219.055 56.88 217.96 56.276C217.909 56.2486 217.854 56.2316 217.796 56.2261C217.739 56.2206 217.681 56.2267 217.626 56.244C217.571 56.263 217.52 56.2934 217.477 56.3334C217.434 56.3733 217.4 56.4219 217.376 56.476L215.42 60.8C215.375 60.8976 215.368 61.0091 215.401 61.1116C215.434 61.2142 215.505 61.3001 215.599 61.352C217.642 62.468 219.488 62.944 221.765 62.944C226.027 62.944 228.384 60.944 230.46 55.556L240.476 29.468C240.502 29.4033 240.512 29.3332 240.504 29.2638C240.497 29.1943 240.473 29.1278 240.434 29.07C240.395 29.0122 240.343 28.965 240.282 28.9326C240.22 28.9001 240.152 28.8834 240.083 28.884H234.075C233.987 28.8849 233.902 28.9131 233.831 28.9646C233.76 29.0162 233.707 29.0886 233.678 29.172L227.519 46.896L220.773 29.16C220.743 29.0791 220.69 29.0094 220.62 28.9601C220.549 28.9108 220.466 28.8842 220.38 28.884H210.519ZM188.388 28.86H182.039V22.312C182.039 22.256 182.028 22.2005 182.007 22.1488C181.985 22.0971 181.954 22.0502 181.915 22.0107C181.875 21.9713 181.828 21.9402 181.777 21.9191C181.725 21.898 181.67 21.8874 181.615 21.888H175.841C175.729 21.889 175.623 21.934 175.544 22.0133C175.466 22.0926 175.421 22.1998 175.42 22.312V28.86H172.642C172.587 28.86 172.532 28.8711 172.48 28.8926C172.429 28.9142 172.383 28.9458 172.343 28.9856C172.304 29.0254 172.273 29.0726 172.253 29.1245C172.232 29.1764 172.221 29.232 172.222 29.288V34.288C172.222 34.524 172.412 34.716 172.642 34.716H175.42V47.652C175.42 52.884 177.999 55.532 183.095 55.532C185.166 55.532 186.88 55.104 188.499 54.18C188.565 54.1429 188.619 54.0888 188.657 54.0234C188.695 53.958 188.714 53.8836 188.714 53.808V49.048C188.715 48.975 188.697 48.9029 188.662 48.8388C188.628 48.7748 188.577 48.7208 188.516 48.6822C188.454 48.6435 188.384 48.6216 188.312 48.6184C188.239 48.6152 188.167 48.6309 188.103 48.664C186.992 49.228 185.916 49.488 184.714 49.488C182.861 49.488 182.035 48.644 182.035 46.744V34.716H188.384C188.44 34.7165 188.496 34.7058 188.547 34.6845C188.599 34.6632 188.646 34.6316 188.686 34.5918C188.725 34.5519 188.757 34.5046 188.778 34.4524C188.799 34.4002 188.81 34.3443 188.809 34.288V29.288C188.81 29.232 188.799 29.1764 188.778 29.1245C188.757 29.0726 188.726 29.0254 188.687 28.9856C188.648 28.9458 188.602 28.9142 188.55 28.8926C188.499 28.8711 188.444 28.86 188.388 28.86ZM157.948 28.328C150.17 28.328 144.071 34.368 144.071 42.076C144.071 49.704 150.126 55.676 157.853 55.676C165.658 55.676 171.773 49.66 171.773 41.98C171.773 34.324 165.702 28.328 157.948 28.328ZM157.948 49.776C153.809 49.776 150.686 46.424 150.686 41.976C150.686 37.516 153.702 34.28 157.853 34.28C162.019 34.28 165.154 37.632 165.154 42.08C165.154 46.54 162.126 49.776 157.948 49.776ZM130.115 28.328C126.861 28.328 124.194 29.62 121.995 32.264V29.288C121.995 29.1751 121.951 29.0669 121.873 28.9867C121.794 28.9066 121.687 28.861 121.575 28.86H115.801C115.689 28.861 115.582 28.9066 115.503 28.9867C115.425 29.0669 115.38 29.1751 115.38 29.288V62.368C115.38 62.6 115.571 62.792 115.801 62.792H121.575C121.686 62.7909 121.792 62.7459 121.871 62.6666C121.95 62.5873 121.994 62.4801 121.995 62.368V51.928C124.198 54.412 126.865 55.628 130.115 55.628C136.154 55.628 142.269 50.94 142.269 41.98C142.269 33.02 136.158 28.328 130.115 28.328ZM135.559 41.98C135.559 46.54 132.769 49.728 128.777 49.728C124.829 49.728 121.853 46.396 121.853 41.98C121.853 37.564 124.829 34.232 128.777 34.232C132.706 34.232 135.563 37.488 135.563 41.98H135.559ZM102.083 34.74C95.6384 33.188 94.4915 32.1 94.4915 29.816C94.4915 27.656 96.5074 26.204 99.5074 26.204C102.412 26.204 105.297 27.304 108.317 29.576C108.362 29.6095 108.413 29.6337 108.467 29.6472C108.522 29.6607 108.578 29.6633 108.634 29.6547C108.689 29.6462 108.742 29.6267 108.79 29.5974C108.838 29.5681 108.879 29.5295 108.912 29.484L112.063 25.008C112.124 24.9195 112.15 24.8111 112.135 24.7043C112.121 24.5975 112.066 24.5003 111.984 24.432C108.388 21.52 104.337 20.108 99.6026 20.108C92.6384 20.108 87.7772 24.316 87.7772 30.344C87.7772 36.804 91.9717 39.092 99.2217 40.856C105.388 42.288 106.432 43.488 106.432 45.636C106.432 48.012 104.329 49.488 100.936 49.488C97.1741 49.488 94.1066 48.208 90.6701 45.216C90.5841 45.1423 90.4732 45.105 90.3606 45.112C90.3046 45.1163 90.2501 45.132 90.2003 45.1582C90.1506 45.1843 90.1065 45.2203 90.0709 45.264L86.5391 49.496C86.4671 49.5803 86.4313 49.6901 86.4394 49.8011C86.4476 49.9121 86.4992 50.0153 86.5828 50.088C90.474 53.6415 95.5425 55.6004 100.793 55.58C108.293 55.58 113.142 51.448 113.142 45.056C113.142 39.652 109.94 36.664 102.083 34.736V34.74ZM37.7257 0.219971C27.8221 0.219971 18.3242 4.1856 11.3214 11.2445C4.31855 18.3033 0.384392 27.8772 0.384392 37.86C0.384392 47.8427 4.31855 57.4166 11.3214 64.4755C18.3242 71.5343 27.8221 75.5 37.7257 75.5C47.6292 75.5 57.1271 71.5343 64.1299 64.4755C71.1328 57.4166 75.0669 47.8427 75.0669 37.86C75.0669 27.8772 71.1328 18.3033 64.1299 11.2445C57.1271 4.1856 47.6292 0.219971 37.7257 0.219971ZM54.8526 54.508C54.6936 54.7716 54.4844 55.0009 54.2372 55.1828C53.99 55.3648 53.7096 55.4957 53.4121 55.5682C53.1146 55.6407 52.8058 55.6532 52.5035 55.6051C52.2011 55.557 51.9112 55.4493 51.6503 55.288C42.8804 49.888 31.8487 48.668 18.8487 51.66C18.5509 51.7285 18.2426 51.7373 17.9414 51.6857C17.6402 51.6342 17.3521 51.5233 17.0934 51.3595C16.8347 51.1957 16.6106 50.9822 16.4338 50.731C16.257 50.4799 16.131 50.1962 16.063 49.896C15.995 49.5958 15.9863 49.285 16.0374 48.9814C16.0886 48.6778 16.1985 48.3874 16.361 48.1266C16.5235 47.8659 16.7354 47.6399 16.9845 47.4617C17.2336 47.2835 17.5151 47.1565 17.813 47.088C32.0352 43.808 44.2376 45.22 54.0788 51.284C55.1741 51.96 55.5193 53.404 54.8526 54.508ZM59.4161 44.26C59.0123 44.9222 58.3645 45.396 57.6146 45.5774C56.8648 45.7589 56.0742 45.6332 55.4161 45.228C45.3804 39.008 30.0788 37.208 18.2058 40.84C17.4834 41.0127 16.7229 40.9013 16.0792 40.5283C15.4355 40.1554 14.9571 39.5491 14.7416 38.833C14.526 38.1168 14.5895 37.3448 14.9191 36.6742C15.2487 36.0036 15.8195 35.485 16.5153 35.224C30.0788 31.076 46.936 33.088 58.4598 40.224C58.7862 40.4255 59.0699 40.69 59.2948 41.0021C59.5198 41.3143 59.6815 41.6681 59.7706 42.0433C59.8598 42.4185 59.8748 42.8078 59.8146 43.1888C59.7545 43.5698 59.6204 43.9352 59.4201 44.264L59.4161 44.26ZM59.8169 33.588C47.7772 26.384 27.9201 25.72 16.432 29.24C15.9911 29.3817 15.5267 29.4338 15.0657 29.393C14.6048 29.3523 14.1564 29.2196 13.7467 29.0027C13.3371 28.7857 12.9743 28.4889 12.6794 28.1294C12.3845 27.7699 12.1635 27.3549 12.0291 26.9086C11.8948 26.4622 11.8497 25.9934 11.8967 25.5293C11.9436 25.0653 12.0816 24.6153 12.3026 24.2055C12.5236 23.7956 12.8232 23.4342 13.184 23.1421C13.5448 22.85 13.9596 22.6331 14.4042 22.504C27.5907 18.464 49.5193 19.248 63.3725 27.536C64.1692 28.0123 64.7455 28.7881 64.9747 29.6928C65.204 30.5975 65.0673 31.5569 64.5947 32.36C64.1222 33.163 63.3525 33.744 62.455 33.975C61.5575 34.2061 60.6057 34.0683 59.809 33.592" fill="white"/>
</svg>
